<svg width="80" height="80" viewBox="0 0 80 80" fill="none" xmlns="http://www.w3.org/2000/svg">
<rect width="80" height="80" rx="24" fill="#1E807F"/>
<path d="M5 49V31.5H15.375V34.95H8.45V37.9H14.175V41.35H8.45V49H5ZM16.0479 44.425V36.5H19.4979V43.475C19.4979 43.9167 19.602 44.3167 19.8104 44.675C20.027 45.025 20.3145 45.3042 20.6729 45.5125C21.0312 45.7208 21.4229 45.825 21.8479 45.825C22.2812 45.825 22.677 45.7208 23.0354 45.5125C23.3937 45.3042 23.677 45.025 23.8854 44.675C24.0937 44.3167 24.1979 43.9167 24.1979 43.475V36.5H27.6479L27.6604 49H24.2104L24.1979 48.05C23.7812 48.45 23.2895 48.7625 22.7229 48.9875C22.1645 49.2125 21.5729 49.325 20.9479 49.325C20.0479 49.325 19.227 49.1042 18.4854 48.6625C17.7437 48.2208 17.152 47.6333 16.7104 46.9C16.2687 46.1583 16.0479 45.3333 16.0479 44.425ZM41.7834 41.05V49H38.3334V42C38.3334 41.5583 38.2251 41.1625 38.0084 40.8125C37.8001 40.4542 37.5167 40.1708 37.1584 39.9625C36.8084 39.7542 36.4167 39.65 35.9834 39.65C35.5501 39.65 35.1542 39.7542 34.7959 39.9625C34.4376 40.1708 34.1542 40.4542 33.9459 40.8125C33.7376 41.1625 33.6334 41.5583 33.6334 42V49H30.1834L30.1709 36.5H33.6209L33.6334 37.425C34.0501 37.025 34.5376 36.7125 35.0959 36.4875C35.6626 36.2625 36.2584 36.15 36.8834 36.15C37.7917 36.15 38.6126 36.3708 39.3459 36.8125C40.0876 37.2542 40.6792 37.8458 41.1209 38.5875C41.5626 39.3208 41.7834 40.1417 41.7834 41.05ZM53.2256 30.25H56.6756V49H53.2256V47.675C52.8423 48.1583 52.3673 48.5542 51.8006 48.8625C51.2339 49.1708 50.5881 49.325 49.8631 49.325C48.9548 49.325 48.1048 49.1542 47.3131 48.8125C46.5214 48.4708 45.8214 48 45.2131 47.4C44.6131 46.7917 44.1423 46.0917 43.8006 45.3C43.4589 44.5083 43.2881 43.6583 43.2881 42.75C43.2881 41.8417 43.4589 40.9917 43.8006 40.2C44.1423 39.4083 44.6131 38.7125 45.2131 38.1125C45.8214 37.5042 46.5214 37.0292 47.3131 36.6875C48.1048 36.3458 48.9548 36.175 49.8631 36.175C50.5881 36.175 51.2339 36.3292 51.8006 36.6375C52.3673 36.9375 52.8423 37.3333 53.2256 37.825V30.25ZM49.9131 46.0125C50.4798 46.0125 50.9923 45.8667 51.4506 45.575C51.9089 45.2833 52.2714 44.8917 52.5381 44.4C52.8048 43.9 52.9381 43.35 52.9381 42.75C52.9381 42.1417 52.8048 41.5917 52.5381 41.1C52.2714 40.6083 51.9089 40.2167 51.4506 39.925C50.9923 39.6333 50.4798 39.4875 49.9131 39.4875C49.3381 39.4875 48.8173 39.6333 48.3506 39.925C47.8839 40.2167 47.5131 40.6125 47.2381 41.1125C46.9631 41.6042 46.8256 42.15 46.8256 42.75C46.8256 43.35 46.9631 43.9 47.2381 44.4C47.5214 44.8917 47.8964 45.2833 48.3631 45.575C48.8298 45.8667 49.3464 46.0125 49.9131 46.0125Z" fill="white"/>
<path d="M67.075 49.325C65.675 49.325 64.4417 48.9833 63.375 48.3C62.3167 47.6167 61.4875 46.7 60.8875 45.55C60.2958 44.3917 60 43.1083 60 41.7V31.5H63.45V41.7C63.45 42.4583 63.5917 43.1542 63.875 43.7875C64.1583 44.4208 64.5708 44.9292 65.1125 45.3125C65.6542 45.6875 66.3083 45.875 67.075 45.875C67.85 45.875 68.5042 45.6875 69.0375 45.3125C69.5792 44.9375 69.9875 44.4333 70.2625 43.8C70.5375 43.1667 70.675 42.4667 70.675 41.7V31.5H74.125V41.7C74.125 42.7583 73.9542 43.75 73.6125 44.675C73.2792 45.5917 72.8 46.4 72.175 47.1C71.55 47.8 70.8042 48.3458 69.9375 48.7375C69.0792 49.1292 68.125 49.325 67.075 49.325Z" fill="#E1B791"/>
</svg>
